<svg id="Layer_1" data-name="Layer 1" xmlns="http://www.w3.org/2000/svg" viewBox="0 0 405.15 279.84"><defs><style>.cls-1{fill:#fbb040;}.cls-2{fill:#808285;}.cls-3{fill:#33bc7a;}.cls-4{fill:#00a25a;}</style></defs><title>Artboard 7</title><path class="cls-1" d="M16.89,269.32l-7.3-5.45,67.62-90.74,114-28.27c20.25-29.18,51.72-75,55.24-81.42.82-4,10.71-7.28,131.06-35.22l2.06,8.88C335.32,47.38,264,64.42,254.19,68c-3.35,6-15.12,23.95-56.44,83.46l-1,1.41L82.57,181.19ZM255.51,64.94a7.36,7.36,0,0,1-1,2.4A4.36,4.36,0,0,0,255.51,64.94Z"/><polygon class="cls-2" points="364.78 271.15 8.68 271.15 8.68 40.37 17.8 40.37 17.8 262.04 364.78 262.04 364.78 271.15"/><polygon class="cls-2" points="355.75 253.36 405.15 266.59 355.75 279.84 355.75 253.36"/><polygon class="cls-2" points="26.48 49.41 13.24 0 0 49.41 26.48 49.41"/><rect class="cls-3" x="47.42" y="232.61" width="40.75" height="30.19"/><rect class="cls-3" x="98.36" y="182.67" width="40.76" height="80.13"/><rect class="cls-3" x="149.3" y="170.89" width="40.75" height="91.9"/><rect class="cls-4" x="200.24" y="158.74" width="40.75" height="104.05"/><rect class="cls-4" x="251.18" y="84.31" width="40.75" height="178.49"/><rect class="cls-1" x="302.12" y="61.52" width="40.75" height="201.28"/></svg>