<?xml version="1.0" encoding="utf-8"?>
<!-- Generator: Adobe Illustrator 22.1.0, SVG Export Plug-In . SVG Version: 6.00 Build 0)  -->
<svg version="1.1" id="Layer_1" xmlns="http://www.w3.org/2000/svg" xmlns:xlink="http://www.w3.org/1999/xlink" x="0px" y="0px"
	 width="100px" height="100px" viewBox="0 0 45 45" enable-background="new 0 0 45 45" xml:space="preserve">
<g>
	<g>
		<g>
			<g>
				<rect x="16" y="21.4" fill="#333333" width="4.9" height="1.3"/>
			</g>
			<g>
				<rect x="24.1" y="21.4" fill="#333333" width="4.9" height="1.3"/>
			</g>
			<g>
				<rect x="16" y="24.3" fill="#333333" width="4.9" height="1.3"/>
			</g>
			<g>
				<rect x="24.1" y="24.3" fill="#333333" width="4.9" height="1.3"/>
			</g>
			<g>
				<rect x="16" y="27.3" fill="#333333" width="4.9" height="1.3"/>
			</g>
			<g>
				<rect x="24.1" y="27.3" fill="#333333" width="4.9" height="1.3"/>
			</g>
		</g>
		<g>
			<path fill="#00A159" d="M22.5,9.1c-1.2,0-2.2-1-2.2-2.2c0-1.2,1-2.2,2.2-2.2c1.2,0,2.2,1,2.2,2.2C24.7,8.1,23.7,9.1,22.5,9.1z
				 M22.5,5.7c-0.6,0-1.1,0.5-1.1,1.1c0,0.6,0.5,1.1,1.1,1.1c0.6,0,1.1-0.5,1.1-1.1C23.6,6.2,23.1,5.7,22.5,5.7z"/>
		</g>
		<g>
			<path fill="#00A159" d="M22.1,18.1c-0.6-0.8-6-7.9-6-11.3c0-3.5,2.9-6.4,6.4-6.4c3.5,0,6.4,2.9,6.4,6.4c0,2.7-3.8,8.3-6,11.3
				l-0.4,0.6L22.1,18.1z M22.5,1.5c-2.9,0-5.3,2.4-5.3,5.3c0,2.6,4.3,8.7,5.2,9.8l0.1,0.2l0.1-0.2c0.9-1.2,5.2-7.2,5.2-9.8
				C27.8,3.9,25.4,1.5,22.5,1.5z"/>
		</g>
	</g>
	<path fill="#333333" d="M43.5,40.4h-1.3v2.9h-1.7v-2.9h-1.3v2.9h-1.7v-2.9h-1.3v2.9h-1.7v-2.9h-1.3h-1.6h0V24.1h0v-1.3h0v-7.3h-4.6
		l0,0h-2.5l-0.1,0.1c-0.2,0.3-0.4,0.6-0.6,0.9L24,16.8h6.6v20.6h-5.3v-7.3h-5.6v7.3h-5.3V16.8H21l-0.2-0.3c-0.2-0.3-0.4-0.6-0.6-0.9
		l-0.1-0.1h-7v7.3v1.3v16.2h-1.7h-1.3v2.9H8.5v-2.9H7.3v2.9H5.6v-2.9H4.4v2.9H2.7v-2.9H1.5v2.9H0v1.3h45v-1.3h-1.5V40.4z M20.9,31.4
		h3.1v6h-3.1V31.4z M14.4,38.7h16.2v1.7H14.4V38.7z M33.5,43.3H11.5v-1.7h22.1V43.3z"/>
</g>
</svg>
