<?xml version="1.0" encoding="utf-8"?>
<!-- Generator: Adobe Illustrator 22.1.0, SVG Export Plug-In . SVG Version: 6.00 Build 0)  -->
<svg version="1.1" id="Layer_1" xmlns="http://www.w3.org/2000/svg" xmlns:xlink="http://www.w3.org/1999/xlink" x="0px" y="0px"
	 width="100px" height="100px" viewBox="0 0 45 45" enable-background="new 0 0 45 45" xml:space="preserve">
<g>
	<g>
		<g>
			<g>
				<rect x="16" y="21.4" fill="#333333" width="4.9" height="1.3"/>
			</g>
			<g>
				<rect x="24.1" y="21.4" fill="#333333" width="4.9" height="1.3"/>
			</g>
			<g>
				<rect x="16" y="24.3" fill="#333333" width="4.9" height="1.3"/>
			</g>
			<g>
				<rect x="24.1" y="24.3" fill="#333333" width="4.9" height="1.3"/>
			</g>
			<g>
				<rect x="16" y="27.3" fill="#333333" width="4.9" height="1.3"/>
			</g>
			<g>
				<rect x="24.1" y="27.3" fill="#333333" width="4.9" height="1.3"/>
			</g>
			<g>
				<rect x="4.4" y="25.8" fill="#333333" width="1.3" height="1.3"/>
			</g>
			<g>
				<rect x="7.3" y="25.8" fill="#333333" width="1.3" height="1.3"/>
			</g>
			<g>
				<rect x="4.4" y="28.7" fill="#333333" width="1.3" height="1.3"/>
			</g>
			<g>
				<rect x="7.3" y="28.7" fill="#333333" width="1.3" height="1.3"/>
			</g>
			<g>
				<rect x="4.4" y="31.6" fill="#333333" width="1.3" height="1.3"/>
			</g>
			<g>
				<rect x="7.3" y="31.6" fill="#333333" width="1.3" height="1.3"/>
			</g>
			<g>
				<rect x="4.4" y="34.5" fill="#333333" width="1.3" height="1.3"/>
			</g>
			<g>
				<rect x="7.3" y="34.5" fill="#333333" width="1.3" height="1.3"/>
			</g>
			<g>
				<rect x="39.4" y="25.8" fill="#333333" width="1.3" height="1.3"/>
			</g>
			<g>
				<rect x="36.5" y="25.8" fill="#333333" width="1.3" height="1.3"/>
			</g>
			<g>
				<rect x="39.4" y="28.7" fill="#333333" width="1.3" height="1.3"/>
			</g>
			<g>
				<rect x="36.5" y="28.7" fill="#333333" width="1.3" height="1.3"/>
			</g>
			<g>
				<rect x="39.4" y="31.6" fill="#333333" width="1.3" height="1.3"/>
			</g>
			<g>
				<rect x="36.5" y="31.6" fill="#333333" width="1.3" height="1.3"/>
			</g>
			<g>
				<rect x="39.4" y="34.5" fill="#333333" width="1.3" height="1.3"/>
			</g>
			<g>
				<rect x="36.5" y="34.5" fill="#333333" width="1.3" height="1.3"/>
			</g>
		</g>
		<g>
			<path fill="#333333" d="M0,44.5v-1.3h1.5V22.9h11.7v-7.3h7l0.1,0.1c0.2,0.3,0.4,0.6,0.6,0.9l0.2,0.3h-6.6v20.6h5.3v-7.3h5.6v7.3
				h5.3V16.8H24l0.2-0.3c0.2-0.3,0.4-0.6,0.6-0.9l0.1-0.1h2.5l0,0h4.6v7.3h11.7v20.4H45v1.3H0z M42.3,43.3V24.1h-7.5v19.2h1.7v-5.8
				h4.2v5.8H42.3z M39.4,43.3v-4.6h-1.7v4.6H39.4z M33.5,43.3v-1.7H11.5v1.7H33.5z M10.2,43.3V24.1H2.7v19.2h1.7v-5.8h4.2v5.8H10.2z
				 M7.3,43.3v-4.6H5.6v4.6H7.3z M33.5,40.4V24.1h-1.7v16.2H33.5z M30.6,40.4v-1.7H14.4v1.7H30.6z M13.1,40.4V24.1h-1.7v16.2H13.1z
				 M24.1,37.5v-6h-3.1v6H24.1z"/>
		</g>
	</g>
	<g>
		<path fill="#00A159" d="M22.5,9.1c-1.2,0-2.2-1-2.2-2.2s1-2.2,2.2-2.2c1.2,0,2.2,1,2.2,2.2S23.7,9.1,22.5,9.1z M22.5,5.7
			c-0.6,0-1.1,0.5-1.1,1.1c0,0.6,0.5,1.1,1.1,1.1c0.6,0,1.1-0.5,1.1-1.1C23.6,6.2,23.1,5.7,22.5,5.7z"/>
	</g>
	<g>
		<path fill="#00A159" d="M22.1,18.1c-0.6-0.8-6-7.9-6-11.3c0-3.5,2.9-6.4,6.4-6.4c3.5,0,6.4,2.9,6.4,6.4c0,2.7-3.8,8.3-6,11.3
			l-0.4,0.6L22.1,18.1z M22.5,1.5c-2.9,0-5.3,2.4-5.3,5.3c0,2.6,4.3,8.7,5.2,9.8l0.1,0.2l0.1-0.2c0.9-1.2,5.2-7.2,5.2-9.8
			C27.8,3.9,25.4,1.5,22.5,1.5z"/>
	</g>
</g>
</svg>
