<?xml version="1.0" encoding="utf-8"?>
<!-- Generator: Adobe Illustrator 22.1.0, SVG Export Plug-In . SVG Version: 6.00 Build 0)  -->
<svg version="1.1" id="Layer_1" xmlns="http://www.w3.org/2000/svg" xmlns:xlink="http://www.w3.org/1999/xlink" x="0px" y="0px"
	 width="100px" height="100px" viewBox="0 0 45 45" enable-background="new 0 0 45 45" xml:space="preserve">
<g>
	<g>
		<g>
			<path fill="#00A159" d="M29.7,24.3c-0.8-1.1-8.2-10.9-8.2-15.5c0-4.9,4-8.8,8.8-8.8c4.9,0,8.8,4,8.8,8.8c0,3.7-5.2,11.5-8.2,15.5
				L30.3,25L29.7,24.3z M30.3,1.5c-4.1,0-7.3,3.3-7.3,7.3c0,3.6,6,11.9,7.2,13.5l0.2,0.3l0.2-0.3c1.2-1.6,7.2-10,7.2-13.5
				C37.6,4.8,34.3,1.5,30.3,1.5z"/>
		</g>
		<g>
			<path fill="#00A159" d="M30.3,11.9c-1.7,0-3-1.4-3-3c0-1.7,1.4-3,3-3c1.7,0,3,1.4,3,3C33.3,10.5,32,11.9,30.3,11.9z M30.3,7.2
				c-0.9,0-1.6,0.7-1.6,1.6c0,0.9,0.7,1.6,1.6,1.6c0.9,0,1.6-0.7,1.6-1.6C31.9,8,31.1,7.2,30.3,7.2z"/>
		</g>
	</g>
	<g>
		<path fill="#333333" d="M24.2,45c-8.1,0-15.3-4.8-18.5-12.3l-0.1-0.1l-0.1,0c-1.9-0.2-4.3-0.8-4.7-2.6c-0.1-0.4,0.1-0.9,0.4-1.5
			c0.2-0.4,1.1-1.6,2.9-2.2l0.2-0.1l0-0.2c0-0.3,0-0.6,0-0.9c0-8.9,6-16.8,14.5-19.2c0.1,0,0.1,0,0.2,0c0.3,0,0.6,0.2,0.7,0.5
			c0.1,0.4-0.1,0.8-0.5,0.9C11.2,9.4,5.7,16.8,5.7,25c0,2,0.3,4.1,1,6l0.1,0.2l0.2,0c0.3,0,0.6,0,0.9,0c2.3,0,4.9-0.3,7.6-0.9
			c2.5-0.6,4.9-1.4,6.9-2.3l0.4-0.2l-3.8-2.9c-0.2-0.1-0.3-0.3-0.3-0.5c0-0.2,0-0.4,0.1-0.5c0.1-0.2,0.4-0.3,0.6-0.3
			c0.2,0,0.3,0.1,0.4,0.2l4.4,3.4l0,0c0.1,0,0.1,0,0.1,0.1c0.4,0.2,0.5,0.6,0.3,1L22.3,33c-0.1,0.3-0.4,0.4-0.7,0.4
			c-0.1,0-0.2,0-0.3-0.1c-0.4-0.2-0.5-0.6-0.4-1l1.4-2.9l-0.6,0.2c-1.8,0.8-4,1.4-6.1,1.9c-2.8,0.6-5.6,1-7.9,1H7.4L7.5,33
			c3.1,6.4,9.6,10.5,16.7,10.5c10.2,0,18.5-8.3,18.5-18.5c0-3.9-1.2-7.5-3.4-10.7c-0.2-0.3-0.2-0.8,0.2-1c0.1-0.1,0.3-0.1,0.4-0.1
			c0.2,0,0.5,0.1,0.6,0.3c2.4,3.4,3.7,7.4,3.7,11.5C44.2,36,35.2,45,24.2,45z M2.3,29.7c0.2,0.5,1.1,1,2.5,1.2L5.1,31L5,30.6
			c-0.3-0.9-0.5-1.8-0.6-2.7l0-0.3l-0.3,0.1c-1,0.5-1.7,1.4-1.8,1.8L2.3,29.7L2.3,29.7z"/>
	</g>
</g>
</svg>
